<?xml version="1.0" standalone="no"?>
<!DOCTYPE svg PUBLIC "-//W3C//DTD SVG 20010904//EN"
 "http://www.w3.org/TR/2001/REC-SVG-20010904/DTD/svg10.dtd">
<svg version="1.0" xmlns="http://www.w3.org/2000/svg"
 width="512.000000pt" height="512.000000pt" viewBox="0 0 512.000000 512.000000"
 preserveAspectRatio="xMidYMid meet">

<g transform="translate(0.000000,512.000000) scale(0.100000,-0.100000)"
fill="#000000" stroke="none">
<path style = "fill:#1e90ff" d="M1792 4556 c-217 -53 -411 -253 -457 -472 -8 -38 -15 -117 -15 -176
0 -103 1 -107 26 -127 22 -17 41 -21 100 -21 l74 0 0 -104 0 -104 -117 -4
c-132 -4 -178 -20 -228 -80 -86 -101 -75 -257 23 -338 69 -57 96 -60 531 -60
258 0 410 4 436 11 67 19 121 63 150 124 55 111 16 244 -89 310 -47 28 -56 30
-173 34 l-123 3 0 104 0 104 80 0 c73 0 83 3 105 25 22 21 25 33 25 100 l0 75
600 0 c520 0 606 2 638 15 174 73 163 323 -17 384 -24 8 -210 11 -627 11
l-594 0 0 80 c0 117 -5 120 -167 119 -71 0 -152 -6 -181 -13z m208 -386 l0
-270 -270 0 -270 0 0 63 c0 123 51 240 144 332 94 94 206 140 349 144 l47 1 0
-270z m1350 40 c11 -11 20 -31 20 -45 0 -14 -9 -34 -20 -45 -20 -20 -33 -20
-615 -20 l-595 0 0 65 0 65 595 0 c582 0 595 0 615 -20z m-1550 -555 l0 -105
-70 0 -70 0 0 105 0 105 70 0 70 0 0 -105z m372 -274 c27 -24 33 -36 33 -71 0
-35 -6 -47 -33 -71 l-32 -29 -411 0 -411 0 -34 34 c-48 48 -44 105 10 148 19
16 58 18 433 18 l413 0 32 -29z"/>
<path  style = "fill:#1e90ff"  d="M796 4454 c-22 -22 -29 -56 -24 -121 7 -85 55 -116 112 -72 24 19 26
26 26 95 0 61 -4 78 -20 94 -24 24 -72 26 -94 4z"/>
<path style = "fill:#1e90ff" d="M564 4222 c-15 -10 -34 -47 -34 -66 0 -9 9 -25 20 -36 17 -17 33 -20
98 -20 89 0 112 14 112 67 0 48 -26 63 -111 63 -41 0 -79 -4 -85 -8z"/>
<path style = "fill:#1e90ff" d="M940 4210 c-24 -24 -26 -57 -4 -88 14 -20 24 -22 99 -22 75 0 85 2
99 22 22 31 20 64 -4 88 -16 16 -33 20 -95 20 -62 0 -79 -4 -95 -20z"/>
<path style = "fill:#1e90ff" d="M799 4071 c-18 -14 -23 -31 -27 -80 -3 -36 1 -73 8 -90 21 -52 94
-59 119 -12 6 11 11 49 11 86 0 57 -3 69 -25 90 -29 30 -55 32 -86 6z"/>
<path style = "fill:#1e90ff" d="M4309 3842 c-28 -23 -30 -73 -4 -102 24 -26 79 -26 105 0 63 63 -31
158 -101 102z"/>
<path style = "fill:#1e90ff" d="M3360 3726 c-52 -26 -105 -90 -120 -144 -42 -153 71 -302 230 -302
163 0 278 159 225 311 -36 102 -118 159 -227 159 -46 0 -75 -7 -108 -24z m183
-146 c37 -41 37 -89 -2 -132 -24 -27 -36 -33 -71 -33 -103 0 -138 143 -46 190
42 21 85 12 119 -25z"/>
<path style = "fill:#1e90ff" d="M4087 3298 c-9 -7 -48 -71 -88 -143 -39 -71 -76 -135 -82 -142 -7 -6
-70 -44 -142 -83 -71 -39 -136 -79 -142 -88 -18 -23 -16 -66 5 -85 9 -8 76
-48 149 -87 l132 -72 75 -137 c42 -76 82 -144 91 -151 22 -18 64 -15 85 6 10
11 50 78 90 150 l71 130 117 63 c162 88 182 104 182 145 0 19 -6 39 -14 45 -7
6 -74 44 -147 85 l-134 73 -77 139 c-43 76 -85 145 -95 151 -22 16 -55 16 -76
1z m107 -320 c28 -51 47 -73 79 -91 23 -13 66 -38 96 -54 l53 -30 -95 -53 -95
-53 -52 -93 c-29 -52 -53 -94 -55 -94 -2 0 -26 42 -54 94 l-51 94 -96 52 -97
52 91 50 c97 52 107 63 167 175 l39 73 17 -28 c9 -15 33 -57 53 -94z"/>
<path style = "fill:#1e90ff" d="M773 3015 c-12 -8 -40 -49 -63 -91 -36 -63 -50 -79 -92 -102 -102
-55 -128 -79 -128 -116 0 -39 13 -51 117 -105 54 -29 65 -40 94 -94 53 -102
66 -117 103 -117 40 0 54 14 103 105 35 64 44 73 118 115 137 79 138 121 5
192 -79 42 -82 45 -126 126 -31 56 -54 86 -70 93 -33 12 -36 12 -61 -6z m57
-236 c8 -18 27 -37 47 -47 41 -19 41 -27 2 -47 -17 -9 -40 -32 -51 -51 l-21
-36 -20 35 c-11 19 -35 43 -54 54 l-35 20 36 21 c19 11 42 34 51 51 20 39 29
39 45 0z"/>
<path d="M1674 2860 c-94 -19 -203 -100 -243 -179 -10 -20 -80 -201 -156 -404
-127 -339 -140 -368 -164 -374 -69 -16 -138 -71 -174 -138 -21 -39 -22 -51
-22 -365 0 -316 1 -326 22 -366 43 -80 139 -144 217 -144 26 0 26 0 26 -77 0
-132 32 -203 110 -243 34 -18 59 -20 200 -20 141 0 166 2 200 20 78 40 110
111 110 243 l0 77 680 0 680 0 0 -77 c0 -132 32 -203 110 -243 34 -18 59 -20
200 -20 141 0 166 2 200 20 78 40 110 111 110 243 0 77 0 77 26 77 78 0 174
64 217 144 21 40 22 50 22 366 0 314 -1 326 -22 365 -38 72 -110 126 -183 140
l-35 6 -129 347 c-71 191 -141 371 -155 400 -33 70 -123 153 -198 184 l-58 23
-775 2 c-426 0 -794 -3 -816 -7z m1616 -157 c30 -16 67 -44 83 -64 18 -23 75
-159 157 -380 71 -189 128 -344 126 -346 -1 -2 -236 -2 -520 -1 l-517 3 238
129 c285 155 303 167 303 207 0 34 -31 69 -62 69 -12 0 -192 -92 -399 -205
l-376 -205 -517 0 c-331 0 -516 4 -516 10 0 15 238 647 260 691 23 43 74 88
122 106 24 8 236 12 799 12 l765 1 54 -27z m586 -967 l34 -34 0 -300 0 -300
-26 -31 c-14 -17 -42 -35 -62 -41 -51 -14 -2633 -14 -2684 0 -20 6 -48 24 -62
41 l-26 31 0 300 0 300 34 34 34 34 1362 0 1362 0 34 -34z m-2216 -929 c0
-123 2 -122 -170 -122 -172 0 -170 -1 -170 122 l0 83 170 0 170 0 0 -83z
m1980 0 c0 -123 2 -122 -170 -122 -172 0 -170 -1 -170 122 l0 83 170 0 170 0
0 -83z"/>
<path style = "fill:#1e90ff" d="M1335 1671 c-80 -21 -153 -79 -191 -154 -25 -48 -30 -154 -10 -214
37 -111 147 -189 266 -187 115 1 198 53 249 156 51 101 41 203 -28 294 -62 83
-192 130 -286 105z m148 -157 c38 -29 59 -70 59 -119 0 -55 -25 -97 -72 -124
-92 -52 -195 1 -215 109 -8 48 28 117 75 142 43 24 116 20 153 -8z"/>
<path style = "fill:#1e90ff" d="M3454 1662 c-113 -40 -194 -152 -194 -267 0 -97 74 -211 168 -256
101 -49 238 -22 319 63 77 80 100 213 54 310 -26 54 -96 123 -147 144 -58 24
-142 27 -200 6z m167 -145 c94 -63 88 -199 -12 -249 -126 -65 -262 79 -189
200 43 70 135 93 201 49z"/>
</g>
</svg>
