<?xml version="1.0" standalone="no"?>
<!DOCTYPE svg PUBLIC "-//W3C//DTD SVG 20010904//EN"
 "http://www.w3.org/TR/2001/REC-SVG-20010904/DTD/svg10.dtd">
<svg version="1.0" xmlns="http://www.w3.org/2000/svg"
 width="200.000000pt" height="200.000000pt" viewBox="0 0 200.000000 200.000000"
 preserveAspectRatio="xMidYMid meet">

<g transform="translate(0.000000,200.000000) scale(0.100000,-0.100000)"
fill="#000000" stroke="none">
<path d="M1140 1963 c-51 -19 -351 -149 -381 -165 -61 -34 -69 -58 -69 -211 0
-131 -1 -135 -22 -141 -38 -10 -66 -7 -71 7 -7 17 -68 47 -97 47 -37 0 -90
-31 -108 -64 -15 -28 -17 -82 -17 -596 0 -538 1 -566 19 -593 10 -15 32 -35
47 -43 28 -14 29 -17 29 -94 l0 -80 30 0 30 0 0 80 c0 77 1 80 29 94 46 24 61
59 68 151 l6 85 28 0 29 0 0 -149 c0 -137 2 -150 22 -181 51 -74 56 -75 288
-75 232 0 237 1 288 75 21 31 22 42 22 235 0 202 0 203 23 209 12 3 25 6 28 6
4 0 8 -64 11 -143 5 -156 14 -184 69 -213 28 -14 29 -17 29 -94 l0 -80 30 0
30 0 0 80 c0 77 1 80 29 94 59 31 65 53 69 254 6 253 -1 307 -43 349 -20 20
-43 33 -59 33 -23 0 -26 4 -26 33 0 17 -9 47 -21 66 -19 31 -19 35 -4 51 27
30 31 94 8 132 -19 33 -19 35 -1 68 23 44 23 76 0 120 -18 33 -18 35 1 68 29
49 19 107 -27 149 -31 29 -43 33 -91 33 l-55 0 0 158 c0 136 -3 161 -19 188
-29 48 -101 75 -151 57z m93 -85 c15 -17 17 -42 17 -178 l0 -157 -227 -37
c-126 -21 -238 -40 -250 -43 -23 -5 -23 -5 -23 119 0 84 4 130 13 141 6 9 100
55 207 102 205 88 229 93 263 53z m181 -393 c39 -39 22 -98 -31 -109 -135 -28
-763 -126 -779 -122 -12 3 -27 19 -34 36 -16 40 6 77 52 85 147 27 729 123
750 124 15 1 33 -6 42 -14z m-884 -55 c18 -10 18 -12 -6 -48 -21 -30 -25 -45
-21 -80 3 -24 12 -51 21 -61 16 -18 16 -21 -3 -52 -26 -43 -26 -85 0 -128 19
-31 19 -35 4 -51 -27 -30 -31 -94 -8 -132 19 -32 19 -34 1 -63 -23 -38 -23
-81 0 -125 18 -33 18 -35 -1 -68 -26 -44 -18 -104 18 -142 24 -26 26 -32 23
-116 -3 -85 -4 -89 -30 -104 -25 -13 -31 -13 -55 0 l-28 16 -3 562 c-2 551 -2
562 18 582 22 22 42 25 70 10z m890 -140 c29 -29 25 -72 -10 -90 -10 -5 -181
-37 -381 -70 -200 -33 -376 -63 -391 -66 -21 -4 -34 1 -53 20 -30 30 -31 46
-7 76 15 19 62 29 392 85 206 34 387 63 403 64 15 1 36 -8 47 -19z m6 -195
c14 -21 14 -30 4 -55 -7 -16 -20 -32 -29 -34 -36 -12 -743 -126 -775 -126 -54
0 -83 53 -53 94 11 15 83 31 383 81 432 73 447 75 470 40z m-11 -180 c30 -29
31 -45 7 -75 -16 -20 -58 -29 -398 -86 -208 -35 -389 -64 -401 -64 -27 0 -63
33 -63 58 0 51 8 53 421 123 217 37 398 67 402 68 4 1 19 -10 32 -24z m129
-153 c14 -17 16 -46 14 -253 l-3 -233 -27 -16 c-25 -13 -31 -13 -55 0 l-28 16
-3 148 c-2 135 -1 151 16 170 44 48 53 99 27 150 -19 37 -20 36 13 36 16 0 36
-8 46 -18z m-130 -27 c39 -39 22 -98 -31 -109 -135 -28 -763 -126 -779 -122
-12 3 -27 19 -34 36 -10 25 -10 34 4 55 9 14 20 25 24 25 4 0 176 29 382 64
206 35 385 64 397 65 12 1 28 -6 37 -14z m-164 -380 c0 -208 -6 -235 -61 -254
-42 -14 -336 -14 -378 0 -52 18 -61 49 -61 212 l0 144 238 40 c130 23 243 41
250 42 9 1 12 -42 12 -184z"/>
<path style = "fill:#1e90ff" d="M1050 1790 c-63 -27 -116 -54 -118 -62 -1 -7 3 -21 10 -30 12 -15 24
-12 134 34 l122 51 -10 28 c-5 16 -13 29 -16 28 -4 0 -59 -22 -122 -49z"/>
<path style = "fill:#1e90ff" d="M830 1699 c-33 -13 -32 -13 -19 -43 10 -20 17 -25 33 -20 32 10 38
19 30 48 -7 29 -8 29 -44 15z"/>
<path style = "fill:#1e90ff"  d="M1127 433 c-4 -3 -7 -53 -7 -110 l0 -103 -60 0 -60 0 0 -30 0 -30 79
0 c107 0 111 5 111 162 l0 118 -28 0 c-16 0 -32 -3 -35 -7z"/>
</g>
</svg>
