<!DOCTYPE svg PUBLIC "-//W3C//DTD SVG 1.1//EN" "http://www.w3.org/Graphics/SVG/1.1/DTD/svg11.dtd">
<!-- Uploaded to: SVG Repo, www.svgrepo.com, Transformed by: SVG Repo Mixer Tools -->
<svg version="1.1" id="Layer_1" xmlns="http://www.w3.org/2000/svg" xmlns:xlink="http://www.w3.org/1999/xlink" viewBox="0 0 512 512" xml:space="preserve" width="800px" height="800px" fill="#000000">
<g id="SVGRepo_bgCarrier" stroke-width="0"/>
<g id="SVGRepo_tracerCarrier" stroke-linecap="round" stroke-linejoin="round"/>
<g id="SVGRepo_iconCarrier"> <path style="fill:#ffffff;" d="M407.415,43.571H208.609c-4.3,4.565-8.601,9.119-12.901,13.684 c-22.141,23.475-44.271,46.95-66.39,70.426c-4.763,5.039-9.516,10.089-14.268,15.128v347.332h385.924V142.809 C469.791,109.73,438.597,76.651,407.415,43.571z M262.244,146.117V87.681h126.134l55.09,58.436H262.244z"/> <rect x="164.668" y="192.433" style="fill:#1e90ff;" width="286.686" height="248.094"/> <path style="fill:#1e90ff;" d="M195.708,57.255c-22.141,23.475-44.271,46.95-66.39,70.426L94.221,92.584l66.39-70.426 L195.708,57.255z"/> <g> <path style="fill:#231F20;" d="M388.38,76.655H262.244c-6.089,0-11.026,4.938-11.026,11.026v58.436 c0,6.089,4.938,11.026,11.026,11.026H443.47c4.401,0,8.38-2.617,10.124-6.657c1.743-4.041,0.917-8.732-2.101-11.933l-55.091-58.436 C394.319,77.907,391.415,76.655,388.38,76.655z M273.271,135.091V98.708h110.35l34.3,36.383H273.271z"/> <path style="fill:#231F20;" d="M508.996,135.245l-93.559-99.238c-2.083-2.21-4.985-3.463-8.023-3.463H208.609 c-3.039,0-5.943,1.255-8.026,3.467l-5.107,5.417L168.407,14.36c-2.108-2.107-4.945-3.284-7.96-3.229 c-2.98,0.044-5.816,1.293-7.861,3.462l-25.716,27.279l-27.81-27.81c-2.067-2.067-4.873-3.23-7.797-3.23H11.026 C4.937,10.834,0,15.772,0,21.86s4.937,11.026,11.026,11.026h75.671l25.04,25.041L86.198,85.02 c-4.091,4.339-3.99,11.143,0.226,15.361l27.524,27.524c-0.883,0.937-6.92,7.339-6.92,7.339c-1.93,2.045-3.005,4.752-3.005,7.564 V490.14c0,6.089,4.937,11.026,11.026,11.026h385.924c6.089,0,11.026-4.938,11.026-11.026V142.808 C512,139.997,510.925,137.291,508.996,135.245z M160.844,37.984L180.34,57.48c-17.093,18.125-34.177,36.247-51.256,54.372 l-19.495-19.495L160.844,37.984z M489.947,479.114H126.076V147.187l87.292-92.589h189.289l87.291,92.59V479.114z"/> <path style="fill:#231F20;" d="M164.666,181.407c-6.09,0-11.026,4.938-11.026,11.026v248.094c0,6.089,4.937,11.026,11.026,11.026 h286.686c6.089,0,11.026-4.938,11.026-11.026V192.433c0-6.089-4.938-11.026-11.026-11.026L164.666,181.407L164.666,181.407z M407.05,380.63c-4.307-4.305-11.287-4.305-15.595,0c-4.306,4.306-4.306,11.288,0,15.595l33.277,33.277H191.286l33.277-33.277 c4.306-4.306,4.306-11.288,0-15.595c-4.306-4.305-11.288-4.305-15.595,0l-33.277,33.277V219.053l33.277,33.277 c2.153,2.152,4.975,3.23,7.797,3.23c2.822,0,5.644-1.077,7.797-3.23c4.306-4.306,4.306-11.288,0-15.595l-33.275-33.275h233.446 l-33.277,33.277c-4.306,4.306-4.306,11.288,0,15.595c2.153,2.152,4.975,3.23,7.797,3.23s5.643-1.077,7.797-3.23l33.277-33.277 v194.853L407.05,380.63z"/> <path style="fill:#231F20;" d="M360.583,267.608l-1.103,1.103c-4.306,4.306-4.306,11.288,0,15.595 c2.153,2.152,4.975,3.23,7.797,3.23s5.643-1.077,7.797-3.23l1.103-1.103c4.306-4.306,4.306-11.288,0-15.595 C371.87,263.303,364.89,263.303,360.583,267.608z"/> </g> </g>
</svg>