<?xml version="1.0" standalone="no"?>
<!DOCTYPE svg PUBLIC "-//W3C//DTD SVG 20010904//EN"
 "http://www.w3.org/TR/2001/REC-SVG-20010904/DTD/svg10.dtd">
<svg version="1.0" xmlns="http://www.w3.org/2000/svg"
 width="512.000000pt" height="512.000000pt" viewBox="0 0 512.000000 512.000000"
 preserveAspectRatio="xMidYMid meet">

<g transform="translate(0.000000,512.000000) scale(0.100000,-0.100000)"
fill="#000000" stroke="none">
<path d="M1490 5042 c-58 -29 -60 -36 -60 -369 l0 -303 -345 0 -345 0 0 -345
0 -345 -300 0 c-337 0 -349 -2 -376 -67 -19 -44 -11 -83 22 -114 26 -24 26
-24 337 -29 l312 -5 3 -232 2 -233 -297 0 c-343 0 -357 -3 -382 -75 -12 -36
-12 -45 3 -75 30 -65 29 -65 369 -68 l307 -3 -2 -232 -3 -232 -312 -5 c-311
-5 -311 -5 -337 -29 -33 -31 -41 -70 -22 -114 27 -65 39 -67 376 -67 l300 0
-2 -232 -3 -233 -311 -5 c-341 -5 -334 -4 -361 -68 -18 -42 -3 -92 34 -122 25
-19 40 -20 334 -20 l309 0 0 -340 0 -340 345 0 345 0 0 -313 c0 -343 0 -341
62 -373 39 -20 87 -12 119 22 l24 26 5 316 5 317 233 3 232 2 0 -305 c0 -343
2 -354 67 -381 45 -19 83 -11 119 27 l29 30 3 315 3 314 229 0 229 0 3 -312
c3 -345 3 -344 67 -374 47 -23 104 -5 131 39 19 30 20 52 20 340 l0 307 233
-2 232 -3 5 -317 c5 -316 5 -316 29 -342 13 -14 36 -28 52 -31 37 -8 99 21
116 55 9 18 13 108 13 333 l0 307 340 0 340 0 0 340 0 340 314 0 c299 0 314 1
339 20 38 30 52 80 34 123 -29 67 -27 67 -374 67 l-313 0 0 235 0 235 305 0
c343 0 354 2 381 67 19 44 11 83 -22 114 -26 24 -26 24 -342 29 l-317 5 -3
232 -2 232 314 3 315 3 30 29 c38 37 46 74 27 120 -26 63 -44 66 -386 66
l-300 0 2 233 3 232 316 5 c292 5 319 6 338 24 33 30 45 78 27 119 -27 65 -39
67 -381 67 l-305 0 0 345 0 345 -340 0 -340 0 0 303 c0 220 -4 309 -13 327 -7
14 -29 33 -50 43 -31 15 -43 17 -71 7 -72 -23 -70 -17 -76 -364 l-5 -311 -232
-3 -233 -2 0 295 c0 332 -3 350 -63 378 -45 22 -87 13 -124 -25 l-28 -29 -3
-310 -3 -309 -230 0 -229 0 0 290 c0 305 -4 335 -46 371 -30 25 -70 31 -108
15 -64 -27 -66 -40 -66 -376 l0 -300 -232 2 -233 3 -5 311 c-5 341 -4 334 -67
361 -41 16 -41 16 -83 -5z m2670 -2487 l0 -1605 -1605 0 -1605 0 0 1605 0
1605 1605 0 1605 0 0 -1605z"/>
<path style = "fill:#1e90ff" d="M1710 3805 l0 -105 878 0 c1007 0 950 5 1038 -84 89 -88 84 -31 84
-1038 l0 -878 110 0 110 0 0 843 c0 485 -5 874 -10 917 -22 167 -144 330 -306
407 l-79 38 -912 3 -913 2 0 -105z"/>
<path style = "fill:#1e90ff" d="M1190 2553 c0 -498 4 -877 10 -918 30 -215 225 -411 440 -445 40 -6
394 -10 918 -10 l852 0 0 110 0 110 -902 2 -903 3 -42 22 c-61 33 -110 88
-133 150 -20 52 -20 75 -20 938 l0 885 -110 0 -110 0 0 -847z"/>
</g>
</svg>
