<svg width="496" height="91" viewBox="0 0 496 91" fill="none" xmlns="http://www.w3.org/2000/svg">
<path d="M48 1.61804L58.7502 34.7037L58.8624 35.0491H59.2257H94.014L65.8697 55.4972L65.5758 55.7107L65.688 56.0562L76.4382 89.1418L48.2939 68.6938L48 68.4803L47.7061 68.6938L19.5618 89.1418L30.312 56.0562L30.4242 55.7107L30.1303 55.4972L1.98601 35.0491H36.7743H37.1376L37.2498 34.7037L48 1.61804Z" fill="#1E90FF" stroke="#1E90FF" stroke-width = "5"/>
<path d="M148 1.61804L158.75 34.7037L158.862 35.0491H159.226H194.014L165.87 55.4972L165.576 55.7107L165.688 56.0562L176.438 89.1418L148.294 68.6938L148 68.4803L147.706 68.6938L119.562 89.1418L130.312 56.0562L130.424 55.7107L130.13 55.4972L101.986 35.0491H136.774H137.138L137.25 34.7037L148 1.61804Z" fill="#1E90FF" stroke="#1E90FF" stroke-width = "5"/>
<path d="M248 1.61804L258.75 34.7037L258.862 35.0491H259.226H294.014L265.87 55.4972L265.576 55.7107L265.688 56.0562L276.438 89.1418L248.294 68.6938L248 68.4803L247.706 68.6938L219.562 89.1418L230.312 56.0562L230.424 55.7107L230.13 55.4972L201.986 35.0491H236.774H237.138L237.25 34.7037L248 1.61804Z" fill="#1E90FF" stroke="#1E90FF" stroke-width = "5"/>
<path d="M348 1.61804L358.75 34.7037L358.862 35.0491H359.226H394.014L365.87 55.4972L365.576 55.7107L365.688 56.0562L376.438 89.1418L348.294 68.6938L348 68.4803L347.706 68.6938L319.562 89.1418L330.312 56.0562L330.424 55.7107L330.13 55.4972L301.986 35.0491H336.774H337.138L337.25 34.7037L348 1.61804Z" stroke="#1E90FF" stroke-width = "5"/>
<path d="M448 1.61804L458.75 34.7037L458.862 35.0491H459.226H494.014L465.87 55.4972L465.576 55.7107L465.688 56.0562L476.438 89.1418L448.294 68.6938L448 68.4803L447.706 68.6938L419.562 89.1418L430.312 56.0562L430.424 55.7107L430.13 55.4972L401.986 35.0491H436.774H437.138L437.25 34.7037L448 1.61804Z" stroke="#1E90FF" stroke-width = "5"/>
</svg>
