<!DOCTYPE svg PUBLIC "-//W3C//DTD SVG 1.1//EN" "http://www.w3.org/Graphics/SVG/1.1/DTD/svg11.dtd">
<!-- Uploaded to: SVG Repo, www.svgrepo.com, Transformed by: SVG Repo Mixer Tools -->
<svg fill="#000000" version="1.1" id="Layer_1" xmlns="http://www.w3.org/2000/svg" xmlns:xlink="http://www.w3.org/1999/xlink" width="800px" height="800px" viewBox="0 0 174 256" enable-background="new 0 0 174 256" xml:space="preserve">
<g id="SVGRepo_bgCarrier" stroke-width="0"/>
<g id="SVGRepo_tracerCarrier" stroke-linecap="round" stroke-linejoin="round"/>
<g id="SVGRepo_iconCarrier"> <path d="M42.52,227.312v13.344c0,7.461-6.026,13.344-13.344,13.344s-13.344-5.883-13.344-13.344v-13.344H2.344v-43.62l0,0 c0-9.614,6.457-17.505,15.209-19.944l15.64-37.163c2.296-5.452,7.605-9.327,13.918-9.327h79.921c6.313,0,11.622,3.874,13.918,9.327 l15.496,37.163c8.753,2.439,15.209,10.331,15.209,19.944l0,0v43.62h-13.631v13.344c0,7.461-6.026,13.344-13.344,13.344 c-7.461,0-13.344-5.883-13.344-13.344v-13.344H42.52z M30.036,203.35c7.461,0,13.488-6.026,13.488-13.488 c0-7.461-6.026-13.488-13.488-13.488s-13.488,6.026-13.488,13.488C16.549,197.323,22.575,203.35,30.036,203.35 M156.59,189.862 c0-7.461-6.026-13.488-13.488-13.488c-7.461,0-13.488,6.026-13.488,13.488c0,7.461,6.026,13.488,13.488,13.488 S156.59,197.323,156.59,189.862 M143.103,163.03l-13.344-32.141c-0.574-1.578-2.152-2.726-4.018-2.726H48.259 c-1.722,0-3.3,1.148-3.874,2.726L31.041,163.03L143.103,163.03z M58.076,73.512c-1.769,1.317-2.107,3.688-0.828,5.419 c1.242,1.769,3.763,2.107,5.457,0.865c1.731-1.279,2.145-3.726,0.865-5.457C62.253,72.609,59.845,72.233,58.076,73.512z M63.119,62.034c-1.656,1.242-1.957,3.5-0.79,5.156s3.537,1.995,5.156,0.79c1.656-1.204,1.995-3.5,0.79-5.156 C67.07,61.168,64.775,60.83,63.119,62.034z M53.485,84.802c-1.656,1.242-1.957,3.5-0.79,5.156c1.167,1.656,3.538,1.995,5.156,0.79 c1.656-1.204,1.995-3.5,0.79-5.156C57.399,83.937,55.103,83.598,53.485,84.802z M73.054,51.346 c-1.167-1.581-3.312-1.882-4.855-0.753c-1.581,1.167-1.882,3.274-0.753,4.854c1.129,1.581,3.349,1.882,4.855,0.753 C73.844,55.034,74.221,52.852,73.054,51.346z M75.312,73.926c-1.618,1.43-1.694,3.839-0.301,5.419 c1.468,1.618,3.914,1.731,5.457,0.339c1.581-1.43,1.731-3.876,0.301-5.457C79.376,72.609,76.93,72.496,75.312,73.926z M73.543,85.141c-1.618,1.43-1.694,3.839-0.301,5.419c1.392,1.618,3.876,1.769,5.457,0.339c1.581-1.43,1.731-3.876,0.301-5.457 C77.608,83.824,75.161,83.711,73.543,85.141z M71.887,97.635c-1.618,1.43-1.731,3.838-0.301,5.419 c1.43,1.618,3.876,1.769,5.457,0.339c1.581-1.43,1.731-3.876,0.301-5.457C75.914,96.318,73.468,96.205,71.887,97.635z M77.156,62.373c-1.543,1.355-1.618,3.65-0.301,5.156c1.355,1.543,3.726,1.656,5.193,0.301c1.505-1.355,1.618-3.65,0.301-5.156 C80.995,61.168,78.699,61.056,77.156,62.373z M79.038,50.857c-1.43,1.28-1.543,3.462-0.301,4.892 c1.242,1.43,3.462,1.543,4.892,0.263c1.43-1.28,1.543-3.462,0.263-4.892C82.613,49.728,80.43,49.615,79.038,50.857z M96.65,67.792 c1.43-1.581,1.317-3.951-0.188-5.344c-1.543-1.393-3.914-1.317-5.344,0.226c-1.392,1.505-1.28,3.876,0.263,5.306 C92.924,69.41,95.295,69.297,96.65,67.792z M98.419,79.27c1.43-1.581,1.317-3.951-0.188-5.306c-1.543-1.468-3.914-1.393-5.344,0.188 c-1.392,1.505-1.279,3.876,0.264,5.306C94.693,80.888,97.064,80.775,98.419,79.27z M94.016,85.442 c-1.392,1.505-1.28,3.876,0.263,5.306c1.543,1.392,3.914,1.317,5.269-0.188c1.43-1.581,1.317-3.951-0.188-5.344 C97.817,83.824,95.446,83.899,94.016,85.442z M94.957,55.9c1.317-1.43,1.204-3.65-0.188-4.93c-1.43-1.317-3.65-1.242-4.968,0.188 c-1.317,1.392-1.204,3.65,0.226,4.93C91.419,57.405,93.639,57.292,94.957,55.9z M106.359,56.201 c1.129-1.505,0.828-3.688-0.677-4.855c-1.505-1.129-3.688-0.828-4.855,0.677c-1.129,1.468-0.828,3.688,0.715,4.817 C103.048,57.97,105.23,57.706,106.359,56.201z M111.44,68.432c1.204-1.581,0.866-3.876-0.715-5.08 c-1.581-1.204-3.876-0.865-5.081,0.715c-1.204,1.581-0.866,3.876,0.715,5.08C107.978,70.351,110.236,70.088,111.44,68.432z M116.52,80.738c1.28-1.656,0.941-4.064-0.753-5.344c-1.656-1.28-4.027-0.903-5.306,0.752c-1.279,1.656-0.903,4.064,0.753,5.306 C112.87,82.732,115.241,82.431,116.52,80.738z M120.472,86.985c-1.656-1.28-4.027-0.903-5.306,0.753 c-1.279,1.656-0.903,4.064,0.753,5.306c1.693,1.242,4.064,0.941,5.344-0.753C122.504,90.673,122.165,88.227,120.472,86.985z M26.327,2v13.131h53.617v12.036l-14.225,7.66v8.754h42.675v-8.754l-14.225-7.66V15.131h53.617V2H26.327z"/> </g>
</svg>