<?xml version="1.0" standalone="no"?>
<!DOCTYPE svg PUBLIC "-//W3C//DTD SVG 20010904//EN"
 "http://www.w3.org/TR/2001/REC-SVG-20010904/DTD/svg10.dtd">
<svg version="1.0" xmlns="http://www.w3.org/2000/svg"
 width="512.000000pt" height="512.000000pt" viewBox="0 0 512.000000 512.000000"
 preserveAspectRatio="xMidYMid meet">

<g transform="translate(0.000000,512.000000) scale(0.100000,-0.100000)"
fill="#000000" stroke="none">
<path  d="M2350 4973 c-197 -20 -419 -68 -590 -128 -102 -35 -347 -151 -461
-217 -197 -115 -494 -377 -638 -563 -652 -842 -696 -1975 -111 -2852 446 -669
1204 -1073 2010 -1073 637 0 1255 255 1705 705 389 388 636 897 700 1441 73
628 -117 1290 -513 1783 -403 503 -978 821 -1618 896 -115 13 -388 18 -484 8z
m187 -250 c15 -66 36 -126 46 -135 21 -22 70 -23 91 -3 27 27 27 52 2 151 -14
54 -23 100 -21 103 13 12 279 -25 469 -66 l29 -6 -7 -129 c-7 -127 -7 -128 18
-153 31 -31 60 -32 90 -2 20 20 24 37 30 127 3 57 8 105 10 107 11 12 293
-114 413 -184 l41 -24 -39 -116 c-21 -65 -39 -123 -39 -130 0 -22 47 -63 73
-63 36 0 62 37 93 133 15 48 33 87 39 87 19 0 177 -130 278 -229 l97 -96 -70
-99 c-74 -106 -85 -143 -53 -178 17 -19 54 -24 82 -9 9 5 41 46 71 90 30 44
58 80 62 81 18 1 179 -244 239 -362 l31 -62 -38 -30 c-130 -103 -159 -132
-162 -163 -4 -38 26 -73 62 -73 15 0 57 26 107 65 45 36 85 65 89 65 18 0 125
-362 132 -444 l3 -40 -114 -48 c-63 -26 -118 -53 -123 -60 -13 -22 -9 -70 9
-90 24 -26 56 -22 155 18 49 21 92 34 96 30 9 -9 10 -482 1 -491 -4 -3 -62
-12 -128 -20 -136 -14 -161 -27 -161 -78 0 -65 42 -77 195 -58 33 5 62 7 64 5
13 -12 -55 -260 -111 -407 -26 -68 -32 -76 -51 -72 -73 16 -194 35 -223 35
-55 0 -82 -60 -49 -107 11 -16 37 -25 112 -39 54 -9 102 -21 107 -25 17 -15
-102 -210 -241 -395 l-21 -29 -116 58 c-129 65 -158 67 -184 14 -22 -46 1 -74
106 -130 l94 -50 -64 -64 c-68 -69 -181 -166 -266 -227 l-53 -38 -84 81 c-47
45 -95 86 -108 92 -51 23 -108 -31 -88 -84 5 -13 43 -55 84 -93 87 -82 95 -66
-72 -149 -97 -48 -287 -125 -310 -125 -5 0 -37 47 -70 105 -77 130 -108 150
-158 103 -34 -32 -29 -60 27 -155 28 -47 50 -88 50 -92 0 -17 -242 -58 -389
-67 l-108 -7 -29 119 c-16 66 -37 127 -46 136 -35 35 -97 17 -113 -31 -5 -16
16 -119 42 -205 5 -18 0 -18 -88 -12 -104 8 -226 27 -338 53 l-74 17 7 127 c6
112 5 128 -11 147 -29 34 -68 38 -96 10 -21 -21 -25 -37 -31 -128 -3 -57 -8
-105 -10 -107 -11 -12 -353 142 -432 194 l-22 14 41 124 41 124 -20 28 c-28
37 -72 42 -101 11 -11 -13 -33 -61 -48 -108 -15 -47 -30 -88 -32 -93 -7 -13
-165 114 -276 223 l-107 105 70 100 c60 84 70 106 68 135 -2 25 -10 38 -29 49
-45 25 -72 8 -135 -82 -32 -45 -59 -84 -62 -87 -10 -13 -176 230 -238 349
l-38 74 39 31 c131 104 160 132 163 163 4 38 -26 73 -62 73 -13 0 -58 -27
-107 -65 -46 -36 -87 -65 -91 -65 -17 0 -124 364 -130 444 l-3 39 105 44 c57
24 113 51 122 60 23 20 23 71 1 95 -24 26 -56 22 -155 -18 -49 -21 -92 -34
-96 -30 -9 9 -10 482 -1 491 4 3 62 12 128 20 134 14 161 27 161 77 0 15 -10
38 -21 49 -20 20 -28 21 -116 15 -52 -4 -101 -10 -109 -13 -9 -3 -14 2 -14 17
0 31 44 200 78 300 50 145 63 171 81 166 56 -16 222 -38 245 -32 49 12 61 92
16 116 -10 6 -54 17 -97 26 -43 8 -88 17 -100 19 -21 5 -20 8 24 88 44 80 159
251 208 312 l25 30 114 -58 c127 -64 155 -66 181 -16 25 48 7 71 -101 130
l-98 52 97 93 c53 52 140 126 192 165 l95 71 91 -86 c50 -47 99 -87 108 -87
50 -4 81 21 81 66 0 27 -12 44 -80 109 l-80 76 53 27 c181 94 400 183 414 169
4 -3 34 -52 67 -108 70 -118 96 -137 144 -101 43 32 40 62 -17 158 -28 47 -51
89 -51 94 0 20 286 66 432 69 l66 2 29 -117z"/>
<path d="M2395 4214 c-381 -41 -750 -219 -1017 -491 -127 -130 -219 -258 -298
-418 -79 -158 -119 -274 -152 -437 -32 -161 -32 -452 0 -614 93 -468 361 -855
767 -1111 79 -50 251 -128 355 -162 716 -230 1493 47 1903 679 240 372 323
830 227 1265 -33 152 -126 378 -212 514 -129 206 -324 401 -529 529 -156 99
-373 184 -564 222 -98 20 -384 34 -480 24z m468 -163 c395 -84 735 -312 961
-644 59 -88 146 -265 181 -369 87 -263 98 -579 29 -850 -143 -566 -593 -996
-1170 -1119 -125 -27 -363 -36 -489 -20 -506 67 -940 371 -1168 819 -63 124
-108 249 -139 389 -19 83 -22 128 -22 303 0 174 3 220 22 303 67 300 204 556
407 762 234 237 522 385 860 441 119 20 403 12 528 -15z"/>
<path style = "fill:#1e90ff" d="M2354 3784 c-254 -42 -482 -161 -670 -348 -238 -239 -364 -542 -364
-876 0 -335 126 -638 364 -875 149 -148 305 -244 493 -305 446 -144 926 -27
1258 305 423 422 485 1065 154 1570 -68 103 -231 266 -334 334 -269 176 -594
247 -901 195z m136 -473 l0 -349 -37 -13 c-21 -6 -59 -22 -84 -35 l-46 -23
-247 248 -248 248 58 45 c110 83 216 138 350 182 63 21 177 44 222 45 l32 1 0
-349z m261 334 c165 -29 328 -99 463 -198 l79 -59 -248 -248 -248 -249 -41 21
c-23 12 -59 27 -81 33 l-40 12 -3 352 c-2 338 -2 351 17 351 10 0 56 -7 102
-15z m-545 -894 c-13 -25 -29 -63 -35 -83 l-13 -38 -349 0 -349 0 0 28 c0 49
37 205 70 294 35 95 104 218 165 292 l39 47 247 -247 248 -247 -23 -46z m1227
482 c121 -160 200 -353 222 -541 l7 -62 -352 2 -353 3 -12 40 c-6 22 -21 58
-33 80 l-21 40 247 248 c136 136 248 247 249 247 1 0 22 -26 46 -57z m-758
-437 c95 -45 144 -126 145 -236 0 -153 -107 -260 -260 -260 -154 0 -260 106
-260 260 1 154 106 260 260 260 48 0 78 -7 115 -24z m-500 -351 c6 -22 21 -58
33 -81 l21 -41 -248 -247 -248 -248 -42 54 c-116 145 -206 362 -227 548 l-7
60 353 -2 353 -3 12 -40z m1480 -17 c-21 -186 -103 -385 -223 -542 l-45 -58
-247 247 -248 248 29 61 c16 33 29 68 29 77 0 9 3 19 7 22 3 4 164 7 356 7
l349 0 -7 -62z m-1210 -253 l40 -12 3 -353 2 -352 -62 7 c-188 22 -401 109
-546 226 l-54 42 248 248 247 248 41 -21 c23 -12 59 -27 81 -33z m599 -194
l249 -249 -79 -59 c-135 -99 -298 -169 -463 -198 -46 -8 -92 -15 -102 -15 -19
0 -19 13 -17 351 l3 352 40 12 c29 8 119 50 120 55 0 0 112 -112 249 -249z"/>
</g>
</svg>
