
<svg height="800px" width="800px" version="1.1" id="Layer_1" xmlns="http://www.w3.org/2000/svg" xmlns:xlink="http://www.w3.org/1999/xlink" viewBox="0 0 512 512" xml:space="preserve" fill="#000000">

<g id="SVGRepo_bgCarrier" stroke-width="0"/>

<g id="SVGRepo_tracerCarrier" stroke-linecap="round" stroke-linejoin="round"/>

<g id="SVGRepo_iconCarrier"> <path style="fill:#1e90ff;" d="M328.559,232.073l-3.49-11.085l152.713-65.058l4.796,12.305c3.115,8.004,5.905,16.597,8.286,25.54 l3.362,12.655l-161.604,38.946L328.559,232.073z"/> <path style="fill:#1e90ff;" d="M256,332.8c-42.351,0-76.8-34.449-76.8-76.8s34.449-76.8,76.8-76.8s76.8,34.449,76.8,76.8 S298.351,332.8,256,332.8z M256,230.4c-14.114,0-25.6,11.486-25.6,25.6c0,14.114,11.486,25.6,25.6,25.6 c14.114,0,25.6-11.486,25.6-25.6C281.6,241.886,270.114,230.4,256,230.4z"/> <g> <path style="fill:#1e90ff;" d="M17.749,206.583l3.396-12.8c2.355-8.858,5.146-17.451,8.277-25.532l4.727-12.203l153.6,63.462 l-3.959,11.409l-0.538,1.758l-3.678,11.025L17.749,206.583z"/> <path style="fill:#1e90ff;" d="M290.039,325.888l9.745-6.938c0.316-0.324,0.913-0.828,1.562-1.28l9.446-6.733l109.03,125.09 l-10.257,8.354c-6.494,5.291-13.611,10.428-21.734,15.701l-11.008,7.134L290.039,325.888z"/> <path style="fill:#1e90ff;" d="M124.305,460.169c-8.183-5.299-15.309-10.436-21.76-15.701l-10.138-8.269l107.81-126.438 l9.626,7.211c0.495,0.375,0.964,0.777,1.442,1.186l9.515,6.878l-6.11,10.035l-79.249,132.318L124.305,460.169z"/> <path style="fill:#1e90ff;" d="M257.468,179.379c-0.64-0.017-1.263-0.068-1.886-0.154h-11.529L229.385,14.191l16.853-0.956 c3.234-0.23,6.468-0.435,9.762-0.435c3.226,0,6.409,0.205,9.583,0.418l3.814,0.239l13.099,0.7l-12.877,165.547L257.468,179.379z"/> </g> <circle style="fill:#ffffff;" cx="256" cy="256" r="25.6"/> <g> <path style="fill:#000000;" d="M256,0C114.62,0,0,114.611,0,256c0,141.38,114.62,256,256,256s256-114.62,256-256 C512,114.611,397.38,0,256,0z M478.473,197.069l-137.122,33.05c-0.196-0.631-0.384-1.263-0.589-1.894l129.877-55.339 C473.694,180.745,476.288,188.809,478.473,197.069z M294.161,29.03c72.218,12.117,133.103,57.762,165.965,120.499l-130.475,55.595 c-11.136-16.085-27.511-28.015-46.541-34.091L294.161,29.03z M320,256c0,35.285-28.715,64-64,64s-64-28.715-64-64 c0-35.294,28.715-64,64-64C291.285,192,320,220.706,320,256z M256,25.6c4.292,0,8.482,0.41,12.723,0.649l-10.923,140.339 c-0.614-0.017-1.178-0.188-1.801-0.188c-0.077,0-0.154,0.026-0.23,0.026L243.311,26.249C247.535,26.01,251.716,25.6,256,25.6z M217.856,29.03l12.578,141.525c-19.166,5.734-35.644,17.459-47.053,33.323L51.866,149.547 C84.727,86.793,145.63,41.139,217.856,29.03z M41.361,172.877l130.338,53.854c-0.213,0.623-0.384,1.271-0.589,1.903L33.527,197.06 C35.712,188.809,38.306,180.745,41.361,172.877z M25.6,256c0-11.529,1.126-22.767,2.773-33.843l138.197,32.145 c-0.009,0.58-0.171,1.118-0.171,1.698c0,19.9,6.707,38.11,17.69,52.983L91.75,417.289C50.893,375.697,25.6,318.771,25.6,256z M110.643,434.551l91.52-107.349c0.538,0.401,1.007,0.887,1.553,1.28l-72.439,120.943 C124.134,444.809,117.205,439.91,110.643,434.551z M256,486.4c-36.83,0-71.543-8.9-102.46-24.337l72.977-121.83 c9.276,3.251,19.098,5.367,29.483,5.367c9.882,0,19.226-1.988,28.117-4.941l74.496,121.327 C327.671,477.466,292.898,486.4,256,486.4z M380.868,449.348l-73.66-119.962c0.555-0.384,1.015-0.887,1.562-1.289l92.715,106.368 C394.923,439.825,388.002,444.723,380.868,449.348z M420.369,417.161l-93.346-107.093C338.509,295.006,345.6,276.412,345.6,256 c0-0.205-0.06-0.384-0.06-0.589l138.086-33.28c1.638,11.085,2.773,22.332,2.773,33.869 C486.4,318.711,461.15,375.578,420.369,417.161z"/> <path style="fill:#000000;" d="M217.6,256c0,21.171,17.229,38.4,38.4,38.4c21.171,0,38.4-17.229,38.4-38.4 c0-21.171-17.229-38.4-38.4-38.4C234.829,217.6,217.6,234.829,217.6,256z M268.8,256c0,7.066-5.751,12.8-12.8,12.8 c-7.049,0-12.8-5.734-12.8-12.8c0-7.066,5.751-12.8,12.8-12.8C263.049,243.2,268.8,248.934,268.8,256z"/> </g> </g>

</svg>